<svg xmlns="http://www.w3.org/2000/svg" xmlns:xlink="http://www.w3.org/1999/xlink" version="1.1" width="256" height="256" viewBox="0 0 256 256" xml:space="preserve">
<desc>Created with Fabric.js 1.7.22</desc>
<defs>
</defs>
<g transform="translate(128 128) scale(0.72 0.72)" style="">
	<g style="stroke: none; stroke-width: 0; stroke-dasharray: none; stroke-linecap: butt; stroke-linejoin: miter; stroke-miterlimit: 10; fill: none; fill-rule: nonzero; opacity: 1;" transform="translate(-175.05 -175.05000000000004) scale(3.89 3.89)" >
	<rect x="53.77" y="64.53" rx="0" ry="0" width="35.23" height="12" style="stroke: none; stroke-width: 1; stroke-dasharray: none; stroke-linecap: butt; stroke-linejoin: miter; stroke-miterlimit: 10; fill: rgb(206,214,224); fill-rule: nonzero; opacity: 1;" transform=" matrix(1 0 0 1 0 0) "/>
	<rect x="53.77" y="41.83" rx="0" ry="0" width="35.23" height="12" style="stroke: none; stroke-width: 1; stroke-dasharray: none; stroke-linecap: butt; stroke-linejoin: miter; stroke-miterlimit: 10; fill: rgb(206,214,224); fill-rule: nonzero; opacity: 1;" transform=" matrix(1 0 0 1 0 0) "/>
	<rect x="53.77" y="19.12" rx="0" ry="0" width="35.23" height="12" style="stroke: none; stroke-width: 1; stroke-dasharray: none; stroke-linecap: butt; stroke-linejoin: miter; stroke-miterlimit: 10; fill: rgb(206,214,224); fill-rule: nonzero; opacity: 1;" transform=" matrix(1 0 0 1 0 0) "/>
	<path d="M 16.067 49.587 l -0.036 1.51 c 0 2.114 -1.64 3.926 -3.897 4.306 l -5.831 0.982 C 3.232 56.903 1 59.369 1 62.247 v 14.285 h 43.224 V 62.247 c 0 -2.877 -2.232 -5.344 -5.303 -5.861 l -5.831 -0.982 c -2.257 -0.38 -3.897 -2.192 -3.897 -4.306 l -0.036 -1.51" style="stroke: none; stroke-width: 1; stroke-dasharray: none; stroke-linecap: butt; stroke-linejoin: miter; stroke-miterlimit: 10; fill: rgb(206,214,224); fill-rule: nonzero; opacity: 1;" transform=" matrix(1 0 0 1 0 0) " stroke-linecap="round" />
	<path d="M 22.6 66.11 l 10.466 -10.706 h 0.025 c -2.257 -0.38 -3.897 -2.192 -3.897 -4.306 l -0.036 -1.51 h 0.005 H 16.067 l -0.036 1.51 c 0 2.114 -1.64 3.926 -3.897 4.306 L 22.6 66.11" style="stroke: none; stroke-width: 1; stroke-dasharray: none; stroke-linecap: butt; stroke-linejoin: miter; stroke-miterlimit: 10; fill: rgb(255,220,165); fill-rule: nonzero; opacity: 1;" transform=" matrix(1 0 0 1 0 0) " stroke-linecap="round" />
	<path d="M 34.193 33.211 l -0.46 7.148 c -0.454 5.428 -4.029 10.095 -9.152 11.946 l 0 0 c -0.64 0.231 -1.311 0.347 -1.981 0.347 c -0.67 0 -1.341 -0.116 -1.981 -0.347 l 0 0 c -5.123 -1.851 -8.698 -6.518 -9.152 -11.946 l -0.432 -7.148 v -8.546 h 23.159 V 33.211 z" style="stroke: none; stroke-width: 1; stroke-dasharray: none; stroke-linecap: butt; stroke-linejoin: miter; stroke-miterlimit: 10; fill: rgb(255,220,165); fill-rule: nonzero; opacity: 1;" transform=" matrix(1 0 0 1 0 0) " stroke-linecap="round" />
	<path d="M 34.193 33.211 c 5.115 -7.612 2.794 -12.799 -5.441 -16.058 c 0.18 -0.752 1.217 -1.504 2.853 -2.256 c -6.772 -2.544 -14.826 -1.963 -18.511 3.988 c -5.048 1.702 -6.593 7.351 -2.06 14.327 c 0.506 -8.538 6.048 -7.844 12.741 -5.043 c 3.384 1.295 6.321 1.162 9.091 0.73 C 34.379 28.614 34.305 31.307 34.193 33.211 z" style="stroke: none; stroke-width: 1; stroke-dasharray: none; stroke-linecap: butt; stroke-linejoin: miter; stroke-miterlimit: 10; fill: rgb(65,90,107); fill-rule: nonzero; opacity: 1;" transform=" matrix(1 0 0 1 0 0) " stroke-linecap="round" />
	<path d="M 44.224 77.531 H 1 c -0.552 0 -1 -0.447 -1 -1 V 62.247 c 0 -3.368 2.581 -6.248 6.137 -6.848 l 5.831 -0.982 c 1.775 -0.299 3.063 -1.694 3.063 -3.319 l 0.037 -1.534 c 0.013 -0.553 0.478 -0.962 1.023 -0.977 c 0.552 0.014 0.989 0.472 0.976 1.023 l -0.036 1.511 c 0 2.581 -1.989 4.807 -4.73 5.269 l -5.831 0.982 C 3.88 57.809 2 59.858 2 62.247 v 13.284 h 41.224 V 62.247 c 0 -2.389 -1.88 -4.438 -4.469 -4.875 l -5.831 -0.982 c -2.741 -0.462 -4.73 -2.688 -4.73 -5.292 l -0.036 -1.486 c -0.014 -0.553 0.423 -1.011 0.975 -1.024 c 0.538 -0.014 1.01 0.423 1.024 0.976 l 0.037 1.511 c 0 1.649 1.289 3.045 3.063 3.344 l 5.831 0.982 c 3.556 0.6 6.137 3.479 6.137 6.848 v 14.284 C 45.224 77.084 44.776 77.531 44.224 77.531 z" style="stroke: none; stroke-width: 1; stroke-dasharray: none; stroke-linecap: butt; stroke-linejoin: miter; stroke-miterlimit: 10; fill: rgb(0,0,0); fill-rule: nonzero; opacity: 1;" transform=" matrix(1 0 0 1 0 0) " stroke-linecap="round" />
	<path d="M 34.192 34.211 c -0.106 0 -0.214 -0.017 -0.319 -0.052 c -0.428 -0.145 -0.706 -0.557 -0.679 -1.007 c 0.134 -2.277 -0.042 -3.023 -0.188 -3.264 c -2.696 0.416 -5.889 0.629 -9.589 -0.786 c -2.891 -1.21 -6.952 -2.641 -9.178 -1.252 c -1.299 0.81 -2.042 2.634 -2.207 5.421 c -0.025 0.431 -0.325 0.797 -0.742 0.908 c -0.418 0.109 -0.858 -0.06 -1.094 -0.422 c -2.623 -4.037 -3.472 -7.971 -2.391 -11.079 c 0.742 -2.133 2.379 -3.762 4.63 -4.619 c 4.173 -6.325 12.766 -6.635 19.521 -4.098 c 0.378 0.142 0.633 0.497 0.648 0.9 c 0.014 0.403 -0.215 0.776 -0.582 0.944 c -0.813 0.373 -1.338 0.688 -1.679 0.936 c 3.921 1.775 6.339 4.069 7.197 6.83 c 0.909 2.928 0.063 6.359 -2.518 10.199 C 34.833 34.051 34.519 34.211 34.192 34.211 z M 24.026 14.468 c -4.058 0 -7.895 1.409 -10.083 4.942 c -0.123 0.198 -0.31 0.347 -0.531 0.421 c -1.854 0.625 -3.14 1.836 -3.72 3.502 c -0.662 1.904 -0.377 4.27 0.792 6.83 c 0.502 -1.876 1.394 -3.2 2.695 -4.011 c 2.98 -1.857 7.433 -0.392 10.98 1.093 c 3.257 1.246 6.038 1.056 8.55 0.664 c 0.575 -0.108 1.144 0.04 1.576 0.42 c 0.362 0.319 0.6 0.76 0.748 1.32 c 0.888 -2.062 1.088 -3.899 0.595 -5.486 c -0.755 -2.431 -3.193 -4.477 -7.247 -6.081 c -0.462 -0.183 -0.72 -0.678 -0.604 -1.162 c 0.15 -0.629 0.581 -1.203 1.343 -1.767 C 27.455 14.714 25.721 14.468 24.026 14.468 z" style="stroke: none; stroke-width: 1; stroke-dasharray: none; stroke-linecap: butt; stroke-linejoin: miter; stroke-miterlimit: 10; fill: rgb(0,0,0); fill-rule: nonzero; opacity: 1;" transform=" matrix(1 0 0 1 0 0) " stroke-linecap="round" />
	<path d="M 22.6 53.652 c -0.792 0 -1.572 -0.137 -2.32 -0.406 c -5.475 -1.979 -9.325 -7.004 -9.81 -12.804 l -0.434 -7.171 c -0.034 -0.551 0.386 -1.025 0.938 -1.059 c 0.546 -0.039 1.025 0.386 1.059 0.938 l 0.433 7.148 c 0.418 5 3.753 9.353 8.494 11.067 c 1.058 0.381 2.224 0.381 3.283 0 c 4.74 -1.714 8.075 -6.066 8.495 -11.09 l 0.458 -7.128 c 0.036 -0.551 0.524 -0.963 1.062 -0.934 c 0.551 0.036 0.969 0.511 0.934 1.062 l -0.459 7.148 c -0.487 5.819 -4.337 10.845 -9.811 12.823 C 24.171 53.516 23.391 53.652 22.6 53.652 z" style="stroke: none; stroke-width: 1; stroke-dasharray: none; stroke-linecap: butt; stroke-linejoin: miter; stroke-miterlimit: 10; fill: rgb(0,0,0); fill-rule: nonzero; opacity: 1;" transform=" matrix(1 0 0 1 0 0) " stroke-linecap="round" />
	<path d="M 22.6 67.11 c -0.269 0 -0.527 -0.108 -0.715 -0.301 L 11.418 56.103 c -0.386 -0.396 -0.378 -1.028 0.016 -1.414 c 0.396 -0.387 1.029 -0.378 1.415 0.016 l 9.75 9.976 l 9.75 -9.976 c 0.387 -0.394 1.02 -0.402 1.415 -0.016 c 0.395 0.386 0.402 1.019 0.016 1.414 L 23.315 66.81 C 23.126 67.002 22.869 67.11 22.6 67.11 z" style="stroke: none; stroke-width: 1; stroke-dasharray: none; stroke-linecap: butt; stroke-linejoin: miter; stroke-miterlimit: 10; fill: rgb(0,0,0); fill-rule: nonzero; opacity: 1;" transform=" matrix(1 0 0 1 0 0) " stroke-linecap="round" />
	<path d="M 89 77.531 H 53.773 c -0.553 0 -1 -0.447 -1 -1 V 64.532 c 0 -0.553 0.447 -1 1 -1 H 89 c 0.553 0 1 0.447 1 1 v 11.999 C 90 77.084 89.553 77.531 89 77.531 z M 54.773 75.531 H 88 v -9.999 H 54.773 V 75.531 z" style="stroke: none; stroke-width: 1; stroke-dasharray: none; stroke-linecap: butt; stroke-linejoin: miter; stroke-miterlimit: 10; fill: rgb(0,0,0); fill-rule: nonzero; opacity: 1;" transform=" matrix(1 0 0 1 0 0) " stroke-linecap="round" />
	<path d="M 89 54.825 H 53.773 c -0.553 0 -1 -0.447 -1 -1 v -12 c 0 -0.552 0.447 -1 1 -1 H 89 c 0.553 0 1 0.448 1 1 v 12 C 90 54.378 89.553 54.825 89 54.825 z M 54.773 52.825 H 88 v -10 H 54.773 V 52.825 z" style="stroke: none; stroke-width: 1; stroke-dasharray: none; stroke-linecap: butt; stroke-linejoin: miter; stroke-miterlimit: 10; fill: rgb(0,0,0); fill-rule: nonzero; opacity: 1;" transform=" matrix(1 0 0 1 0 0) " stroke-linecap="round" />
	<path d="M 89 32.12 H 53.773 c -0.553 0 -1 -0.448 -1 -1 v -12 c 0 -0.552 0.447 -1 1 -1 H 89 c 0.553 0 1 0.448 1 1 v 12 C 90 31.672 89.553 32.12 89 32.12 z M 54.773 30.12 H 88 v -10 H 54.773 V 30.12 z" style="stroke: none; stroke-width: 1; stroke-dasharray: none; stroke-linecap: butt; stroke-linejoin: miter; stroke-miterlimit: 10; fill: rgb(0,0,0); fill-rule: nonzero; opacity: 1;" transform=" matrix(1 0 0 1 0 0) " stroke-linecap="round" />
	<path d="M 22.526 47.673 c -2.238 0 -4.206 -1.189 -4.784 -2.892 c -0.178 -0.523 0.102 -1.091 0.625 -1.269 c 0.523 -0.178 1.09 0.102 1.269 0.625 c 0.259 0.763 1.335 1.535 2.891 1.535 s 2.631 -0.772 2.891 -1.535 c 0.177 -0.523 0.745 -0.803 1.269 -0.625 c 0.523 0.178 0.803 0.746 0.625 1.269 C 26.731 46.483 24.764 47.673 22.526 47.673 z" style="stroke: none; stroke-width: 1; stroke-dasharray: none; stroke-linecap: butt; stroke-linejoin: miter; stroke-miterlimit: 10; fill: rgb(0,0,0); fill-rule: nonzero; opacity: 1;" transform=" matrix(1 0 0 1 0 0) " stroke-linecap="round" />
	<path d="M 20.051 38 H 17 c -0.552 0 -1 -0.448 -1 -1 s 0.448 -1 1 -1 h 3.051 c 0.552 0 1 0.448 1 1 S 20.604 38 20.051 38 z" style="stroke: none; stroke-width: 1; stroke-dasharray: none; stroke-linecap: butt; stroke-linejoin: miter; stroke-miterlimit: 10; fill: rgb(0,0,0); fill-rule: nonzero; opacity: 1;" transform=" matrix(1 0 0 1 0 0) " stroke-linecap="round" />
	<path d="M 28.051 38 H 25 c -0.552 0 -1 -0.448 -1 -1 s 0.448 -1 1 -1 h 3.051 c 0.552 0 1 0.448 1 1 S 28.604 38 28.051 38 z" style="stroke: none; stroke-width: 1; stroke-dasharray: none; stroke-linecap: butt; stroke-linejoin: miter; stroke-miterlimit: 10; fill: rgb(0,0,0); fill-rule: nonzero; opacity: 1;" transform=" matrix(1 0 0 1 0 0) " stroke-linecap="round" />
	<path d="M 11 77.531 c -0.552 0 -1 -0.447 -1 -1 v -6 c 0 -0.553 0.448 -1 1 -1 s 1 0.447 1 1 v 6 C 12 77.084 11.552 77.531 11 77.531 z" style="stroke: none; stroke-width: 1; stroke-dasharray: none; stroke-linecap: butt; stroke-linejoin: miter; stroke-miterlimit: 10; fill: rgb(0,0,0); fill-rule: nonzero; opacity: 1;" transform=" matrix(1 0 0 1 0 0) " stroke-linecap="round" />
	<path d="M 34.224 77.531 c -0.552 0 -1 -0.447 -1 -1 v -6 c 0 -0.553 0.448 -1 1 -1 s 1 0.447 1 1 v 6 C 35.224 77.084 34.776 77.531 34.224 77.531 z" style="stroke: none; stroke-width: 1; stroke-dasharray: none; stroke-linecap: butt; stroke-linejoin: miter; stroke-miterlimit: 10; fill: rgb(0,0,0); fill-rule: nonzero; opacity: 1;" transform=" matrix(1 0 0 1 0 0) " stroke-linecap="round" />
	<rect x="53.77" y="19.12" rx="0" ry="0" width="8.88" height="12" style="stroke: none; stroke-width: 1; stroke-dasharray: none; stroke-linecap: butt; stroke-linejoin: miter; stroke-miterlimit: 10; fill: rgb(243,112,90); fill-rule: nonzero; opacity: 1;" transform=" matrix(1 0 0 1 0 0) "/>
	<rect x="53.77" y="41.83" rx="0" ry="0" width="28.49" height="12" style="stroke: none; stroke-width: 1; stroke-dasharray: none; stroke-linecap: butt; stroke-linejoin: miter; stroke-miterlimit: 10; fill: rgb(102,198,185); fill-rule: nonzero; opacity: 1;" transform=" matrix(1 0 0 1 0 0) "/>
	<rect x="53.77" y="64.53" rx="0" ry="0" width="18.68" height="12" style="stroke: none; stroke-width: 1; stroke-dasharray: none; stroke-linecap: butt; stroke-linejoin: miter; stroke-miterlimit: 10; fill: rgb(255,209,92); fill-rule: nonzero; opacity: 1;" transform=" matrix(1 0 0 1 0 0) "/>
	<path d="M 62.657 32.12 h -8.884 c -0.553 0 -1 -0.448 -1 -1 v -12 c 0 -0.552 0.447 -1 1 -1 h 8.884 c 0.553 0 1 0.448 1 1 v 12 C 63.657 31.672 63.21 32.12 62.657 32.12 z M 54.773 30.12 h 6.884 v -10 h -6.884 V 30.12 z" style="stroke: none; stroke-width: 1; stroke-dasharray: none; stroke-linecap: butt; stroke-linejoin: miter; stroke-miterlimit: 10; fill: rgb(0,0,0); fill-rule: nonzero; opacity: 1;" transform=" matrix(1 0 0 1 0 0) " stroke-linecap="round" />
	<path d="M 82.261 54.825 H 53.773 c -0.553 0 -1 -0.447 -1 -1 v -12 c 0 -0.552 0.447 -1 1 -1 h 28.487 c 0.553 0 1 0.448 1 1 v 12 C 83.261 54.378 82.813 54.825 82.261 54.825 z M 54.773 52.825 h 26.487 v -10 H 54.773 V 52.825 z" style="stroke: none; stroke-width: 1; stroke-dasharray: none; stroke-linecap: butt; stroke-linejoin: miter; stroke-miterlimit: 10; fill: rgb(0,0,0); fill-rule: nonzero; opacity: 1;" transform=" matrix(1 0 0 1 0 0) " stroke-linecap="round" />
	<path d="M 72.459 77.531 H 53.773 c -0.553 0 -1 -0.447 -1 -1 V 64.532 c 0 -0.553 0.447 -1 1 -1 h 18.686 c 0.553 0 1 0.447 1 1 v 11.999 C 73.459 77.084 73.012 77.531 72.459 77.531 z M 54.773 75.531 h 16.686 v -9.999 H 54.773 V 75.531 z" style="stroke: none; stroke-width: 1; stroke-dasharray: none; stroke-linecap: butt; stroke-linejoin: miter; stroke-miterlimit: 10; fill: rgb(0,0,0); fill-rule: nonzero; opacity: 1;" transform=" matrix(1 0 0 1 0 0) " stroke-linecap="round" />
</g>
</g>
</svg>